<svg width="158" height="159" viewBox="0 0 158 159" fill="none" xmlns="http://www.w3.org/2000/svg">
<path d="M79.0989 0C35.5945 0 0 35.775 0 79.5C0 123.225 35.5945 159 79.0989 159C100.851 159 121.021 150.454 135.259 135.945L121.021 121.635C110.343 132.367 95.5119 139.125 78.9011 139.125C46.0751 139.125 19.577 112.492 19.577 79.5C19.577 46.5075 46.0751 19.875 78.9011 19.875C95.3141 19.875 109.552 27.03 120.23 37.9612L98.6758 59.625H158V0L134.468 23.6513C120.23 9.34125 100.653 0 78.9011 0H79.0989Z" fill="#69B233" fill-opacity="0.3"/>
</svg>
