<svg width="130" height="130" viewBox="0 0 130 130" fill="none" xmlns="http://www.w3.org/2000/svg">
<circle cx="65" cy="65" r="65" fill="#69B233"/>
<path d="M59.561 40.1048C62.211 37.2984 66.7889 37.2984 69.4389 40.1048L72.8465 43.7136C74.1855 45.132 76.1104 45.901 78.0974 45.8114L83.1526 45.5835C87.0836 45.4063 90.3211 48.5287 90.1374 52.3204L89.901 57.1962C89.8081 59.1124 90.6054 60.9689 92.076 62.2606L95.8176 65.5472C98.7275 68.1032 98.7275 72.5186 95.8176 75.0745L92.076 78.3611C90.6054 79.6527 89.8081 81.5092 89.901 83.4257L90.1374 88.3015C90.3211 92.0929 87.0836 95.2155 83.1526 95.0384L78.0974 94.8103C76.1104 94.7207 74.1855 95.4897 72.8465 96.9081L69.4389 100.517C66.7889 103.323 62.211 103.323 59.561 100.517L56.1534 96.9081C54.8142 95.4897 52.8894 94.7207 50.9026 94.8103L45.8473 95.0384C41.9162 95.2155 38.6789 92.0929 38.8626 88.3015L39.0989 83.4257C39.1917 81.5092 38.3944 79.6527 36.9239 78.3611L33.1822 75.0745C30.2726 72.5186 30.2726 68.1032 33.1822 65.5472L36.9239 62.2606C38.3944 60.9689 39.1917 59.1124 39.0989 57.1962L38.8626 52.3203C38.6789 48.5287 41.9162 45.4063 45.8474 45.5835L50.9026 45.8114C52.8894 45.901 54.8142 45.132 56.1534 43.7136L59.561 40.1048Z" stroke="white" stroke-width="3"/>
<path d="M54.478 70.3102L61.1582 76.7533L74.5185 63.8672" stroke="white" stroke-width="3" stroke-linecap="round" stroke-linejoin="round"/>
<g filter="url(#filter0_d_138_7)">
<path d="M61.656 25V23.784L64.952 18.648C65.1973 18.264 65.4213 17.9067 65.624 17.576C65.8373 17.2453 66.008 16.8987 66.136 16.536C66.2747 16.1627 66.344 15.736 66.344 15.256C66.344 14.6587 66.248 14.1893 66.056 13.848C65.864 13.5067 65.528 13.336 65.048 13.336C64.6427 13.336 64.328 13.448 64.104 13.672C63.88 13.896 63.7253 14.1893 63.64 14.552C63.5547 14.9147 63.512 15.304 63.512 15.72V16.152H61.8V15.704C61.8 14.9253 61.9013 14.2587 62.104 13.704C62.3173 13.1387 62.6533 12.7013 63.112 12.392C63.5813 12.0827 64.2 11.928 64.968 11.928C66.0133 11.928 66.792 12.2267 67.304 12.824C67.816 13.4107 68.072 14.2267 68.072 15.272C68.072 15.8267 68.0027 16.312 67.864 16.728C67.736 17.144 67.5653 17.5333 67.352 17.896C67.1387 18.2587 66.904 18.632 66.648 19.016L63.672 23.56H67.768V25H61.656Z" fill="white"/>
</g>
<defs>
<filter id="filter0_d_138_7" x="57.6558" y="11.9277" width="14.416" height="21.0723" filterUnits="userSpaceOnUse" color-interpolation-filters="sRGB">
<feFlood flood-opacity="0" result="BackgroundImageFix"/>
<feColorMatrix in="SourceAlpha" type="matrix" values="0 0 0 0 0 0 0 0 0 0 0 0 0 0 0 0 0 0 127 0" result="hardAlpha"/>
<feOffset dy="4"/>
<feGaussianBlur stdDeviation="2"/>
<feComposite in2="hardAlpha" operator="out"/>
<feColorMatrix type="matrix" values="0 0 0 0 1 0 0 0 0 1 0 0 0 0 1 0 0 0 0.25 0"/>
<feBlend mode="normal" in2="BackgroundImageFix" result="effect1_dropShadow_138_7"/>
<feBlend mode="normal" in="SourceGraphic" in2="effect1_dropShadow_138_7" result="shape"/>
</filter>
</defs>
</svg>
