<svg width="130" height="130" viewBox="0 0 130 130" fill="none" xmlns="http://www.w3.org/2000/svg">
<circle cx="65" cy="65" r="65" fill="#69B233"/>
<path d="M73.214 84.4258L76.1189 90.332C76.1189 90.332 89.1902 92.9544 89.1902 99.1915C89.1902 103.621 83.3806 103.621 83.3806 103.621H67.8887L60.2637 99.6198" stroke="white" stroke-width="3" stroke-linecap="round" stroke-linejoin="round"/>
<path d="M55.7887 84.4258L52.8839 90.332C52.8839 90.332 39.8125 92.9544 39.8125 99.1915C39.8125 103.621 45.622 103.621 45.622 103.621H52.6418L60.267 99.6198L69.5864 94.0178" stroke="white" stroke-width="3" stroke-linecap="round" stroke-linejoin="round"/>
<path d="M34 87.3787C34 87.3787 41.2619 85.9023 45.619 84.4256C49.9762 63.7535 63.0475 65.2301 64.5 65.2301C65.9525 65.2301 79.0238 63.7535 83.3809 84.4256C87.7379 85.9023 95 87.3787 95 87.3787" stroke="white" stroke-width="3" stroke-linecap="round" stroke-linejoin="round"/>
<path d="M64.5004 58.8047C68.2438 58.8047 71.2782 55.9383 71.2782 52.4024C71.2782 48.8664 68.2438 46 64.5004 46C60.7571 46 57.7227 48.8664 57.7227 52.4024C57.7227 55.9383 60.7571 58.8047 64.5004 58.8047Z" stroke="white" stroke-width="3" stroke-linecap="round" stroke-linejoin="round"/>
<g filter="url(#filter0_d_136_2)">
<path d="M64.808 33.144C64.104 33.144 63.5173 33.0107 63.048 32.744C62.5787 32.4773 62.2267 32.0933 61.992 31.592C61.7573 31.0907 61.64 30.4987 61.64 29.816V29.384H63.336C63.336 29.4267 63.336 29.4747 63.336 29.528C63.336 29.5707 63.336 29.6187 63.336 29.672C63.3467 30.056 63.3893 30.4027 63.464 30.712C63.5493 31.0213 63.6933 31.2667 63.896 31.448C64.1093 31.6293 64.4133 31.72 64.808 31.72C65.224 31.72 65.5387 31.624 65.752 31.432C65.9653 31.2293 66.1093 30.9467 66.184 30.584C66.2587 30.2213 66.296 29.8053 66.296 29.336C66.296 28.6533 66.168 28.0987 65.912 27.672C65.6667 27.2347 65.2293 26.9947 64.6 26.952C64.568 26.9413 64.5253 26.936 64.472 26.936C64.4293 26.936 64.392 26.936 64.36 26.936V25.224C64.392 25.224 64.4293 25.224 64.472 25.224C64.5147 25.224 64.552 25.224 64.584 25.224C65.192 25.2027 65.6293 25.0427 65.896 24.744C66.1627 24.4453 66.296 23.9493 66.296 23.256C66.296 22.6693 66.1947 22.2 65.992 21.848C65.8 21.496 65.4107 21.32 64.824 21.32C64.2373 21.32 63.848 21.5173 63.656 21.912C63.464 22.296 63.3573 22.792 63.336 23.4C63.336 23.4427 63.336 23.4907 63.336 23.544C63.336 23.5867 63.336 23.6293 63.336 23.672H61.64V23.24C61.64 22.5467 61.7573 21.9547 61.992 21.464C62.2267 20.9733 62.5787 20.5947 63.048 20.328C63.528 20.0613 64.12 19.928 64.824 19.928C65.5387 19.928 66.1307 20.0613 66.6 20.328C67.0693 20.5947 67.4213 20.9787 67.656 21.48C67.8907 21.9707 68.008 22.5627 68.008 23.256C68.008 24.0347 67.8373 24.6587 67.496 25.128C67.1653 25.5973 66.7173 25.9173 66.152 26.088C66.5467 26.2053 66.8773 26.408 67.144 26.696C67.4213 26.984 67.6347 27.352 67.784 27.8C67.9333 28.2373 68.008 28.7493 68.008 29.336C68.008 30.104 67.9013 30.776 67.688 31.352C67.4747 31.9173 67.1333 32.36 66.664 32.68C66.1947 32.9893 65.576 33.144 64.808 33.144Z" fill="white"/>
</g>
<defs>
<filter id="filter0_d_136_2" x="57.6401" y="19.9277" width="14.3677" height="21.2158" filterUnits="userSpaceOnUse" color-interpolation-filters="sRGB">
<feFlood flood-opacity="0" result="BackgroundImageFix"/>
<feColorMatrix in="SourceAlpha" type="matrix" values="0 0 0 0 0 0 0 0 0 0 0 0 0 0 0 0 0 0 127 0" result="hardAlpha"/>
<feOffset dy="4"/>
<feGaussianBlur stdDeviation="2"/>
<feComposite in2="hardAlpha" operator="out"/>
<feColorMatrix type="matrix" values="0 0 0 0 1 0 0 0 0 1 0 0 0 0 1 0 0 0 0.25 0"/>
<feBlend mode="normal" in2="BackgroundImageFix" result="effect1_dropShadow_136_2"/>
<feBlend mode="normal" in="SourceGraphic" in2="effect1_dropShadow_136_2" result="shape"/>
</filter>
</defs>
</svg>
