<svg width="130" height="130" viewBox="0 0 130 130" fill="none" xmlns="http://www.w3.org/2000/svg">
<circle cx="65" cy="65" r="65" fill="#69B233"/>
<path d="M92 68.64V50.1106C92 49.639 91.7946 49.1866 91.429 48.8531L81.196 39.5209C80.8304 39.1874 80.3344 39 79.8174 39H41.95C40.873 39 40 39.7962 40 40.7784V96.5016C40 97.4839 40.873 98.28 41.95 98.28H62.75" stroke="white" stroke-width="3" stroke-linecap="round" stroke-linejoin="round"/>
<path d="M53.52 63.4395H80.56M53.52 51.4795H67.04M53.52 75.3995H63.66" stroke="white" stroke-width="3" stroke-linecap="round" stroke-linejoin="round"/>
<path d="M86.2598 82.6026L89.6569 79.529C91.1445 78.183 93.5565 78.183 95.0441 79.529C96.5317 80.8749 96.5317 83.0572 95.0441 84.4031L91.647 87.4767M86.2598 82.6026L76.0986 91.7961C75.5893 92.2568 75.2551 92.8522 75.1443 93.4958L74.3198 98.2795L79.6068 97.5339C80.3185 97.4334 80.9762 97.1309 81.4854 96.6702L91.647 87.4767M86.2598 82.6026L91.647 87.4767" stroke="white" stroke-width="3" stroke-linecap="round" stroke-linejoin="round"/>
<path d="M80.5601 39V49.608C80.5601 50.6419 81.3283 51.48 82.2761 51.48H92.0001" stroke="white" stroke-width="3" stroke-linecap="round" stroke-linejoin="round"/>
<g filter="url(#filter0_d_81_547)">
<path d="M63.736 25V14.28C63.7253 14.2907 63.6027 14.3227 63.368 14.376C63.144 14.4293 62.888 14.4827 62.6 14.536C62.312 14.5893 62.056 14.6373 61.832 14.68C61.608 14.7227 61.4907 14.744 61.48 14.744V13.448C61.6613 13.4053 61.8693 13.3467 62.104 13.272C62.3493 13.1973 62.5947 13.1067 62.84 13C63.096 12.8933 63.336 12.76 63.56 12.6C63.7947 12.44 63.992 12.2533 64.152 12.04H65.448V25H63.736Z" fill="white"/>
</g>
<defs>
<filter id="filter0_d_81_547" x="57.48" y="12.04" width="11.9683" height="20.96" filterUnits="userSpaceOnUse" color-interpolation-filters="sRGB">
<feFlood flood-opacity="0" result="BackgroundImageFix"/>
<feColorMatrix in="SourceAlpha" type="matrix" values="0 0 0 0 0 0 0 0 0 0 0 0 0 0 0 0 0 0 127 0" result="hardAlpha"/>
<feOffset dy="4"/>
<feGaussianBlur stdDeviation="2"/>
<feComposite in2="hardAlpha" operator="out"/>
<feColorMatrix type="matrix" values="0 0 0 0 1 0 0 0 0 1 0 0 0 0 1 0 0 0 0.25 0"/>
<feBlend mode="normal" in2="BackgroundImageFix" result="effect1_dropShadow_81_547"/>
<feBlend mode="normal" in="SourceGraphic" in2="effect1_dropShadow_81_547" result="shape"/>
</filter>
</defs>
</svg>
