<svg width="125" height="125" viewBox="0 0 125 125" fill="none" xmlns="http://www.w3.org/2000/svg">
<circle cx="62.5" cy="62.5" r="62.5" fill="#69B233"/>
<path d="M86 64.5V46.6833C86 46.2298 85.8025 45.7949 85.4509 45.4741L75.6116 36.5009C75.26 36.1801 74.7831 36 74.2859 36H37.875C36.8395 36 36 36.7656 36 37.71V91.29C36 92.2345 36.8395 93 37.875 93H57.875" stroke="white" stroke-width="3" stroke-linecap="round" stroke-linejoin="round"/>
<path d="M49 59.5H75M49 48H62M49 71H58.75" stroke="white" stroke-width="3" stroke-linecap="round" stroke-linejoin="round"/>
<path d="M80.4807 77.926L83.7472 74.9706C85.1776 73.6765 87.4968 73.6765 88.9272 74.9706C90.3576 76.2648 90.3576 78.3631 88.9272 79.6573L85.6607 82.6127M80.4807 77.926L70.7103 86.7659C70.2207 87.2089 69.8993 87.7814 69.7928 88.4002L69 93L74.0836 92.283C74.768 92.1864 75.4004 91.8956 75.89 91.4526L85.6607 82.6127M80.4807 77.926L85.6607 82.6127" stroke="white" stroke-width="3" stroke-linecap="round" stroke-linejoin="round"/>
<path d="M75 36V46.2C75 47.1941 75.7387 48 76.65 48H86" stroke="white" stroke-width="3" stroke-linecap="round" stroke-linejoin="round"/>
<g filter="url(#filter0_d_62_256)">
<path d="M60.736 25V14.28C60.7253 14.2907 60.6027 14.3227 60.368 14.376C60.144 14.4293 59.888 14.4827 59.6 14.536C59.312 14.5893 59.056 14.6373 58.832 14.68C58.608 14.7227 58.4907 14.744 58.48 14.744V13.448C58.6613 13.4053 58.8693 13.3467 59.104 13.272C59.3493 13.1973 59.5947 13.1067 59.84 13C60.096 12.8933 60.336 12.76 60.56 12.6C60.7947 12.44 60.992 12.2533 61.152 12.04H62.448V25H60.736Z" fill="white"/>
</g>
<defs>
<filter id="filter0_d_62_256" x="54.48" y="12.04" width="11.968" height="20.96" filterUnits="userSpaceOnUse" color-interpolation-filters="sRGB">
<feFlood flood-opacity="0" result="BackgroundImageFix"/>
<feColorMatrix in="SourceAlpha" type="matrix" values="0 0 0 0 0 0 0 0 0 0 0 0 0 0 0 0 0 0 127 0" result="hardAlpha"/>
<feOffset dy="4"/>
<feGaussianBlur stdDeviation="2"/>
<feComposite in2="hardAlpha" operator="out"/>
<feColorMatrix type="matrix" values="0 0 0 0 1 0 0 0 0 1 0 0 0 0 1 0 0 0 0.25 0"/>
<feBlend mode="normal" in2="BackgroundImageFix" result="effect1_dropShadow_62_256"/>
<feBlend mode="normal" in="SourceGraphic" in2="effect1_dropShadow_62_256" result="shape"/>
</filter>
</defs>
</svg>
